<svg width="121" height="18" viewBox="0 0 121 18" fill="none" xmlns="http://www.w3.org/2000/svg">
<path fill-rule="evenodd" clip-rule="evenodd" d="M120.985 13.4345L119.625 17.9999H94.207L99.5566 0H109.47L105.48 13.4345H120.985Z" fill="#004B93"/>
<path fill-rule="evenodd" clip-rule="evenodd" d="M48.1154 7.96137H40.9528L42.3129 3.42493H49.4155C50.7148 3.42493 51.9242 4.44902 51.5305 5.70761C51.1986 6.87757 50.2014 7.81468 48.1154 7.96137ZM52.5891 0H33.3967L28.0781 17.9995H37.9901L39.9247 11.3854H49.4154C54.8252 11.3854 59.7524 9.07335 60.6894 5.91188C61.4743 3.33762 59.1167 0 52.5891 0Z" fill="#004B93"/>
<path fill-rule="evenodd" clip-rule="evenodd" d="M81.1802 7.96137H74.0177L75.3782 3.42493H82.5107C83.8101 3.42493 84.9888 4.44902 84.6257 5.70761C84.2635 6.87757 83.2655 7.81468 81.1802 7.96137ZM85.6533 0H66.462L61.1426 17.9995H71.0555L73.0205 11.3854H82.5107C87.8907 11.3854 92.846 9.07335 93.7832 5.91188C94.5397 3.33762 92.1824 0 85.6533 0Z" fill="#004B93"/>
<path fill-rule="evenodd" clip-rule="evenodd" d="M23.0298 17.9996L24.5104 13.0244H2.20527L0.724609 17.9996H23.0298Z" fill="#004B93"/>
<path fill-rule="evenodd" clip-rule="evenodd" d="M26.5976 6.0003L27.5346 2.86914H5.19903L4.29297 6.0003H26.5976Z" fill="#004B93"/>
<path fill-rule="evenodd" clip-rule="evenodd" d="M24.9336 11.5613L26.1734 7.43457H3.86831L2.62891 11.5613H24.9336Z" fill="#004B93"/>
<path fill-rule="evenodd" clip-rule="evenodd" d="M27.9551 1.43471L28.3782 0H6.0735L5.65039 1.43471H27.9551Z" fill="#004B93"/>
</svg>
