<svg width="118" height="16" viewBox="0 0 118 16" fill="none" xmlns="http://www.w3.org/2000/svg">
<path fill-rule="evenodd" clip-rule="evenodd" d="M1.04236 0C0.743585 0 0.5 0.242158 0.5 0.539978C0.773081 8.29425 6.91218 14.5594 14.6346 15.0704C14.9728 15.0932 15.313 15.0789 15.6565 15.0789C16.7545 15.0789 17.8939 14.8863 18.9249 14.6603C22.2599 13.931 24.73 10.9827 24.73 7.41887C24.73 7.17243 24.7176 6.93027 24.6943 6.69144C24.651 6.24661 24.5678 5.81321 24.4493 5.39645C23.5663 2.28266 20.6918 0 17.2817 0C13.8719 0 10.9979 2.28266 10.1135 5.39645C10.7244 7.54446 12.282 9.2957 14.3092 10.1754C13.6322 9.45175 13.2183 8.48312 13.2183 7.41887C13.2183 5.18379 15.0375 3.37212 17.2817 3.37212C19.5253 3.37212 21.3446 5.18379 21.3446 7.41887C21.3446 8.48312 20.9307 9.45175 20.2546 10.1754C19.5124 10.9665 18.4549 11.4637 17.2817 11.4637C13.9818 11.4637 11.1407 9.50456 9.86849 6.69144C9.68105 6.27611 9.52691 5.8427 9.41082 5.39454C9.24431 4.748 9.15582 4.06958 9.15582 3.37212C9.15582 2.39969 9.32852 1.46769 9.64346 0.603728C9.65821 0.564241 9.67391 0.525229 9.68866 0.485742C9.69437 0.4591 9.69722 0.431982 9.69722 0.403913C9.69722 0.181261 9.51501 0 9.29141 0H1.04378" fill="#FEDC63"/>
<path fill-rule="evenodd" clip-rule="evenodd" d="M28.4067 0.408195C28.6603 1.35351 28.7954 2.34688 28.7954 3.37165C28.7954 6.83797 27.2497 9.94558 24.8086 12.0484C24.1977 12.508 23.6773 12.9642 22.6582 13.5033C24.506 11.7658 25.409 9.73007 25.409 7.41839C25.409 6.71904 25.321 6.04062 25.154 5.39407C25.321 4.74847 25.409 4.07005 25.409 3.37165C25.409 2.37495 25.2287 1.42107 24.898 0.539026C24.8833 0.49716 24.8752 0.451964 24.8752 0.404389C24.8752 0.181261 25.0584 0 25.2824 0H27.8824C28.1312 0 28.3434 0.18031 28.4067 0.408195Z" fill="#FEDC63"/>
<path d="M33.2012 8.14724C33.2012 11.6569 35.2712 13.6336 38.5167 13.6336C40.1243 13.6336 41.2832 13.1864 42.1025 12.5831V10.6202H41.0515C40.5263 11.1307 39.8622 11.5627 38.7028 11.5627C37.079 11.5627 36.2303 10.5132 36.2303 8.03972C36.2303 5.75278 37.2037 4.65428 38.8412 4.65428C39.8146 4.65428 40.464 4.99491 40.8655 5.36647H42.0092V3.31028C41.2057 2.8469 40.2799 2.53813 38.7641 2.53813C35.4258 2.53813 33.2012 4.60908 33.2012 8.14724ZM40.6962 0.587553L39.2746 2.13422H37.4044L36.0443 0.587553V0H37.5429L38.4087 0.587553L39.2584 0H40.6962V0.587553Z" fill="#0826C4"/>
<path d="M45.3795 10.0365C45.5189 11.4124 46.1669 11.7668 47.2954 11.7668C48.2079 11.7668 48.8877 11.5047 49.3663 11.165H50.2312V12.8182C49.5209 13.2202 48.5623 13.6208 46.8634 13.6208C44.0346 13.6208 42.5664 12.0456 42.5664 9.48033C42.5664 6.86893 44.2663 5.22949 46.724 5.22949C49.2588 5.22949 50.5567 6.57492 50.5567 9.32571C50.5567 9.65018 50.5262 9.94324 50.5262 10.0365H45.3795ZM45.3947 8.58354H47.9291C47.8834 7.33184 47.4657 6.93126 46.724 6.93126C46.0908 6.93126 45.5494 7.25477 45.3947 8.58354Z" fill="#0826C4"/>
<path d="M51.2597 12.9693V11.1467H52.2026C52.5271 11.4383 53.2069 11.748 54.0875 11.748C54.8297 11.748 55.2926 11.5782 55.2926 11.1624C55.2926 10.729 55.0148 10.5881 53.8858 10.4354C52.1565 10.2185 51.1816 9.6157 51.1816 7.91584C51.1816 6.1389 52.5737 5.25781 54.6132 5.25781C55.9111 5.25781 56.668 5.47428 57.3645 5.79779V7.59185H56.4839C56.1128 7.34398 55.5091 7.09707 54.6903 7.09707C53.9172 7.09707 53.6237 7.29736 53.6237 7.68367C53.6237 8.02431 53.9795 8.19415 55.0148 8.3169C56.9163 8.54906 57.8274 9.12092 57.8274 10.8531C57.8274 12.5834 56.6837 13.6182 54.1965 13.6182C52.7735 13.6182 51.9233 13.3099 51.2597 12.9693Z" fill="#0826C4"/>
<path d="M61.3559 8.38936L63.8907 5.35977H66.2091V6.02582L63.9678 8.57347L66.5188 12.84V13.5051H63.9064L62.021 10.3357L61.3559 11.0631V13.5051H58.5742V2.68652H60.3369C61.187 2.68652 61.3559 2.90299 61.3559 4.13899V8.38936Z" fill="#0826C4"/>
<path d="M71.6299 12.7205C71.058 13.3557 70.3011 13.6021 69.2973 13.6021C67.8596 13.6021 66.7168 12.7838 66.7168 11.1758C66.7168 9.46022 68.0294 8.64193 69.9153 8.64193C70.5338 8.64193 71.0128 8.7033 71.4757 8.79655V8.23944C71.4757 7.5301 71.1056 7.20468 70.1003 7.20468C69.2973 7.20468 68.6331 7.43495 68.1688 7.74466H67.3338V5.87448C68.0917 5.55097 69.1883 5.22651 70.6427 5.22651C73.0667 5.22651 74.257 6.03005 74.257 8.0382V13.4941H72.7422C72.0942 13.4941 71.7845 13.2619 71.6299 12.7205ZM71.4757 10.0949C71.1974 10.0468 70.873 10.0164 70.5642 10.0164C69.8225 10.0164 69.3591 10.3099 69.3591 10.9898C69.3591 11.6853 69.7916 11.9793 70.3944 11.9793C70.8116 11.9793 71.1817 11.7786 71.4757 11.5312V10.0949ZM69.8225 4.82402V4.31402L70.332 2.62891H73.0062V3.29401L71.4448 4.82402H69.8225Z" fill="#0826C4"/>
<path d="M81.8427 12.8482V16.0005H79.0605V5.35224H80.994C81.4117 5.35224 81.6581 5.50733 81.768 6.23285C82.3684 5.66195 83.1572 5.22949 84.2691 5.22949C85.8153 5.22949 87.3467 6.23285 87.3467 9.20154C87.3467 12.3072 85.6454 13.42 83.838 13.42C82.9569 13.42 82.3232 13.2183 81.8427 12.8482ZM81.8427 7.56258V11.3025C82.1548 11.518 82.5078 11.6283 82.9717 11.6283C83.8219 11.6283 84.5331 11.2411 84.5331 9.44846C84.5331 7.70102 83.8528 7.30139 83.0183 7.30139C82.6791 7.30139 82.2153 7.40796 81.8427 7.56258Z" fill="#0826C4"/>
<path d="M87.9609 9.46416C87.9609 6.85323 89.8468 5.22949 92.305 5.22949C94.7456 5.22949 96.6306 6.85323 96.6306 9.46416C96.6306 12.0608 94.7456 13.6208 92.305 13.6208C89.8468 13.6208 87.9609 12.0608 87.9609 9.46416ZM93.8189 9.49508C93.8189 7.87229 93.2004 7.13107 92.305 7.13107C91.3925 7.13107 90.7741 7.87229 90.7741 9.49508C90.7741 11.1026 91.3925 11.7987 92.305 11.7987C93.2004 11.7987 93.8189 11.1026 93.8189 9.49508Z" fill="#0826C4"/>
<path d="M97.2172 12.9532V11.1306H98.1597C98.4846 11.4222 99.1649 11.7319 100.046 11.7319C100.785 11.7319 101.25 11.5621 101.25 11.1463C101.25 10.7129 100.974 10.5721 99.8438 10.4193C98.1121 10.2024 97.1406 9.59961 97.1406 7.89976C97.1406 6.12282 98.5312 5.24173 100.57 5.24173C101.87 5.24173 102.626 5.4582 103.322 5.78171V7.57577H102.44C102.069 7.3279 101.467 7.08099 100.647 7.08099C99.8733 7.08099 99.5827 7.28128 99.5827 7.66759C99.5827 8.00823 99.9347 8.17807 100.974 8.30081C102.873 8.53298 103.785 9.10483 103.785 10.837C103.785 12.5674 102.642 13.6021 100.153 13.6021C98.7315 13.6021 97.8809 13.2938 97.2172 12.9532ZM102.843 3.21693L101.421 4.82497H99.5489L98.1906 3.21693V2.62891H99.6907L100.555 3.27926L101.404 2.62891H102.843V3.21693Z" fill="#0826C4"/>
<path d="M104.148 5.35613H105.03V3.28613H107.812V5.35613H109.327V7.15019H107.812V10.8582C107.812 11.5856 108.09 11.8173 108.817 11.8173H109.357V13.4239C108.987 13.5319 108.463 13.6399 107.765 13.6399C106.097 13.6399 105.03 13.0538 105.03 11.2759V7.15019H104.148V5.35613Z" fill="#0826C4"/>
<path d="M114.828 12.7235C114.254 13.3587 113.498 13.6051 112.492 13.6051C111.057 13.6051 109.912 12.7868 109.912 11.1788C109.912 9.4632 111.226 8.64491 113.111 8.64491C113.728 8.64491 114.208 8.70628 114.672 8.79953V8.24243C114.672 7.53308 114.3 7.20767 113.296 7.20767C112.492 7.20767 111.828 7.43793 111.364 7.74764H110.531V5.87747C111.288 5.55395 112.385 5.22949 113.838 5.22949C116.264 5.22949 117.454 6.03304 117.454 8.04118V13.4971H115.94C115.29 13.4971 114.981 13.2649 114.828 12.7235ZM114.672 11.5341V10.0979C114.395 10.0498 114.07 10.0194 113.76 10.0194C113.019 10.0194 112.556 10.3129 112.556 10.9927C112.556 11.6883 112.988 11.9823 113.59 11.9823C114.008 11.9823 114.378 11.7815 114.672 11.5341Z" fill="#0826C4"/>
</svg>
