<svg width="102" height="16" viewBox="0 0 102 16" fill="none" xmlns="http://www.w3.org/2000/svg">
<path d="M20.709 7.97797V15.4559L23.8151 15.3775C27.392 15.2979 28.067 15.1236 29.1019 14.0933C29.8404 13.3491 30.1219 12.5414 30.1219 11.2098C30.1058 9.53103 29.3373 8.4372 27.7681 7.8672C27.3297 7.70913 26.9835 7.5499 26.9835 7.50259C26.9997 7.45529 27.3447 7.2649 27.7681 7.05952C30.2165 5.90223 29.965 2.0519 27.3758 0.895764C26.8739 0.674228 26.1839 0.610768 23.7366 0.563461L20.709 0.5V7.97797ZM26.9212 1.81537C28.8827 2.79728 28.8827 5.6807 26.9062 6.71107C26.1839 7.07452 25.9797 7.10683 23.9247 7.10683H21.729L21.6817 4.41379C21.6655 2.94035 21.6817 1.62498 21.7278 1.51422C21.7913 1.32383 22.2147 1.29268 23.9882 1.35499C25.8862 1.41845 26.2474 1.46691 26.9212 1.81537ZM27.4081 8.54796C28.1454 8.91257 28.3808 9.15026 28.6785 9.72141C29.3223 11.0045 29.0869 12.6521 28.1454 13.5556C27.3608 14.2998 26.5601 14.474 23.9882 14.474H21.6505V11.3368C21.6505 9.60949 21.6967 8.13605 21.7751 8.07374C21.8386 7.99297 22.9209 7.97797 24.1912 8.01028C26.3408 8.08874 26.5451 8.12105 27.4081 8.54796ZM43.6137 7.96182V15.4248H44.5552L44.524 8.01028L44.4779 0.610769L44.0533 0.563461L43.6148 0.516154L43.6137 7.96182ZM48.8232 1.75191C48.0536 2.94035 47.9601 3.22535 48.3836 3.22535C48.634 3.22535 50.674 0.975379 50.674 0.706537C50.674 0.610769 50.4386 0.531153 50.1409 0.531153C49.654 0.531153 49.5605 0.62692 48.8232 1.75191ZM52.2432 7.99413V15.4409L52.7289 15.3925L53.2308 15.3463L53.1997 13.6502L53.1685 11.9702L54.1412 10.8775C54.6743 10.2914 55.1612 9.78487 55.2235 9.75256C55.287 9.72141 56.2123 10.9883 57.2785 12.5725C59.0046 15.1225 59.2561 15.4248 59.6484 15.4248C59.8988 15.4248 60.0869 15.3452 60.0869 15.2183C60.0869 15.1075 59.1615 13.6664 58.0481 12.0187C56.9173 10.371 56.0243 8.97603 56.0404 8.91257C56.0704 8.84911 56.9173 7.8672 57.9385 6.72607C58.9423 5.60108 59.7731 4.60302 59.7731 4.50841C59.7731 4.41379 59.585 4.33418 59.3496 4.35033C58.9896 4.35033 58.4242 4.90417 56.165 7.43913C54.6593 9.11911 53.3728 10.5129 53.2943 10.5129C53.2308 10.5129 53.1847 8.34258 53.1847 5.6807C53.1997 3.01881 53.1524 0.768844 53.1062 0.690383C53.0589 0.594615 52.8385 0.531153 52.6193 0.531153H52.2432V7.99413ZM35.0638 4.33418C33.2915 4.71494 32.6004 5.18916 32.8519 5.85492C32.9304 6.04531 33.0711 6.013 33.715 5.68185C35.2046 4.88917 37.323 4.77725 38.4053 5.45916C39.1114 5.88608 39.378 6.6153 39.378 8.13605V9.40411L38.7203 9.29334C38.343 9.21372 37.3068 9.16642 36.3976 9.16642C34.9542 9.16642 34.6403 9.21372 33.8707 9.57833C32.883 10.0537 32.3973 10.6399 32.1769 11.6379C31.8481 13.0952 32.5542 14.5686 33.8719 15.1548C35.3303 15.8044 37.8099 15.4086 38.7664 14.3794C39.2372 13.8717 39.378 13.904 39.378 14.5213C39.378 15.1075 39.6133 15.4248 40.0368 15.4248C40.3033 15.4248 40.3195 15.1548 40.3195 10.941C40.3195 6.6153 40.3033 6.44107 39.9733 5.76031C39.4564 4.72994 38.6257 4.31802 36.978 4.23956C36.2718 4.20726 35.4088 4.25456 35.0638 4.33418ZM38.7503 10.0226L39.2995 10.1333L39.3468 11.5756L39.393 13.0006L38.7976 13.5233C37.8884 14.331 36.9468 14.6956 35.7699 14.6956C34.5307 14.6956 33.8396 14.331 33.4011 13.4921C32.8207 12.351 33.1496 10.9572 34.1534 10.3387C34.9853 9.81602 37.0091 9.6741 38.7503 10.0226ZM64.4022 4.38148C61.7657 5.26993 60.433 7.72413 60.8877 10.9087C61.1703 12.9856 62.3461 14.6171 63.9626 15.1709C64.9976 15.5356 66.786 15.5033 67.806 15.1075C69.8771 14.331 71.0541 12.1295 70.8648 9.40411C70.6456 6.26684 68.9668 4.41379 66.1745 4.23956C65.4684 4.20726 64.7934 4.25456 64.4022 4.38148ZM67.1945 5.18917C68.1091 5.52809 68.8606 6.20208 69.2968 7.07452C69.6418 7.75528 69.7352 8.16835 69.7825 9.45141C69.8921 12.0337 69.2806 13.4598 67.6964 14.2363C65.5468 15.2979 63.2092 14.5052 62.2676 12.3671C61.9388 11.6541 61.8915 11.3056 61.8915 9.79987C61.8915 7.77259 62.158 6.99606 63.1469 6.02915C64.1195 5.0784 65.8607 4.71379 67.1945 5.18917ZM87.1188 4.41379C86.1611 4.68263 85.1573 5.15801 84.4523 5.69685C84.1846 5.90223 83.9181 6.07761 83.8708 6.07761C83.8246 6.07761 83.7773 5.69685 83.7462 5.23763C83.6989 4.4761 83.6677 4.41379 83.2754 4.36533L82.8358 4.31918V15.4248H83.7773V7.05952L84.2481 6.64761C84.5135 6.44107 85.1896 6.013 85.77 5.728C87.0715 5.0784 88.9857 4.90417 89.6757 5.36339C90.4603 5.87108 90.5238 6.3303 90.5238 11.0679V15.4248H91.4803L91.4342 10.6087C91.3857 6.013 91.3707 5.76031 91.0569 5.34724C90.4765 4.55571 89.9896 4.30302 88.9384 4.23956C88.343 4.20726 87.6057 4.27187 87.1188 4.41379ZM96.5168 4.41379C95.1668 4.72994 94.4456 5.12686 94.4456 5.52147C94.4456 5.713 94.4918 5.90223 94.5391 5.95069C94.5864 6.013 95.0883 5.82377 95.6699 5.55378C96.5629 5.12686 96.8929 5.0634 98.0537 5.0634C99.5917 5.04724 100.141 5.25263 100.673 6.06146C100.988 6.52068 101.035 6.80568 101.035 8.01028V9.40411L100.376 9.29334C99.999 9.21372 98.9479 9.16642 98.0387 9.16642C96.5006 9.16642 96.3125 9.19757 95.4656 9.6418C94.3349 10.2279 93.818 11.0679 93.818 12.3187C93.8341 14.5225 95.6525 15.8367 98.1333 15.4248C99.1833 15.2506 99.4187 15.1548 100.298 14.5213L101.035 13.9675V14.5213C101.035 15.1075 101.333 15.4883 101.74 15.3925C101.959 15.3463 101.992 14.8386 101.992 10.8775C101.976 5.91839 101.946 5.63339 101.003 4.92032C100.077 4.1911 98.2268 3.98687 96.5168 4.41379ZM100.486 10.0214L100.957 10.1333L101.003 11.5433C101.05 12.8898 101.035 12.9533 100.611 13.3964C99.8583 14.204 98.7437 14.6794 97.5829 14.6956C96.2029 14.7117 95.5118 14.3471 95.0572 13.4125C94.8068 12.8737 94.7433 12.5414 94.8218 12.0025C94.9314 11.1314 95.1679 10.7345 95.8256 10.3226C96.6264 9.81602 99.0264 9.67179 100.486 10.0214ZM48.0075 9.87948V15.4248H48.9478V10.0699C48.9478 4.5084 48.9328 4.33418 48.2901 4.33418C48.0224 4.33418 48.0075 4.65148 48.0075 9.87948ZM71.7602 4.68263C71.8063 4.88917 72.764 7.35952 73.8625 10.1968C75.8701 15.2817 75.9013 15.3452 76.3559 15.3925C76.7805 15.4409 76.859 15.3775 77.1094 14.759C78.6936 10.7506 80.9528 4.7784 80.9528 4.58802C80.9528 4.42879 80.812 4.33418 80.5766 4.33418C80.1693 4.33418 80.2478 4.15995 77.2974 11.8445C76.8267 13.0479 76.4032 13.9825 76.3559 13.904C76.3098 13.8244 75.494 11.7325 74.5213 9.24603C73.5486 6.75837 72.7329 4.63533 72.6856 4.52456C72.6383 4.42879 72.3867 4.33418 72.1363 4.33418C71.7279 4.33418 71.6817 4.38148 71.7602 4.68263Z" fill="#002677"/>
<path fill-rule="evenodd" clip-rule="evenodd" d="M0.455078 9.15332H6.22423V14.9225H0.455078V9.15332Z" fill="#002776"/>
<path fill-rule="evenodd" clip-rule="evenodd" d="M8.53125 9.15332H14.3004V14.9225H8.53125V9.15332Z" fill="#12A3D2"/>
<path fill-rule="evenodd" clip-rule="evenodd" d="M8.53125 1.07715H14.3004V6.8463H8.53125V1.07715Z" fill="#FAD90D"/>
</svg>
