<svg width="98" height="22" viewBox="0 0 98 22" fill="none" xmlns="http://www.w3.org/2000/svg">
<path d="M10.782 8.82406L10.2633 9.06714L9.74101 8.82406L2.48242 5.26602L5.92519 3.96257L13.3721 7.5488L10.782 8.82406ZM18.0513 5.26602L15.4541 6.51662L7.91837 3.1946L10.2633 2.2998L18.0513 5.26602Z" fill="#BA1B02"/>
<path d="M10.5443 0L20.0732 3.65316L18.7338 4.71705L10.2636 1.46197L1.78996 4.71705L0.450513 3.65316L9.99007 0H10.5443ZM18.9541 5.03058L20.5316 4.42818L19.3484 14.1159L19.1104 14.5457L10.7468 22L10.4768 20.2844L17.9237 13.6509L18.9541 5.03058ZM1.41335 14.5457L1.17531 14.1159L-0.0078125 4.42818L1.56968 5.03058L2.60713 13.658L10.0469 20.2914L9.78401 22L1.41335 14.5457Z" fill="#BA1B02"/>
<path d="M15.6561 6.82054L18.0578 5.36914L17.1128 13.1687L10.3125 19.235L10.6891 9.8396L13.67 8.02182L13.4746 12.6261L15.3328 11.3333L15.6561 6.82054Z" fill="#BA1B02"/>
<path d="M9.83713 9.8396L10.2102 19.2279L3.41702 13.1687L2.46484 5.36914L9.83713 9.8396Z" fill="#BA1B02"/>
<path d="M87.3653 7.99307C87.9053 8.23262 88.34 8.5849 88.6692 9.04991C88.9937 9.51258 89.1619 10.1079 89.1737 10.836V16.9551H87.2196V10.8536C87.1888 10.4661 87.0479 10.1596 86.7968 9.93414C86.5505 9.70633 86.2438 9.55133 85.8766 9.46913C85.5237 9.38458 85.1637 9.36697 84.7965 9.41629C84.4294 9.46326 84.1168 9.56072 83.8586 9.70868V16.9551H81.8867V8.22557C82.0904 8.19739 82.2621 8.16216 82.4019 8.11989C82.6103 8.05413 82.9313 7.94962 83.3647 7.80636C83.7721 7.67014 84.3062 7.59029 84.9671 7.56681C85.0097 7.55976 85.0524 7.55976 85.095 7.56681C85.2561 7.55976 85.4207 7.56211 85.5888 7.57385C86.2307 7.61613 86.8229 7.75587 87.3653 7.99307Z" fill="#BA1B02"/>
<path d="M81.5702 8.24369L78.472 16.9556H76.3829L73.2812 8.24369C73.9658 8.24369 74.597 8.06285 75.175 7.70117L77.0473 13.0876L77.3529 14.9265H77.4986L77.8041 13.0876L79.6765 7.70117C80.2544 8.06285 80.8857 8.24369 81.5702 8.24369Z" fill="#BA1B02"/>
<path d="M49.4093 11.8546C49.8712 12.0378 50.2525 12.3173 50.5533 12.693C50.8541 13.0735 51.0105 13.589 51.0223 14.2396C51.0105 14.9606 50.8174 15.5501 50.4432 16.008C50.0666 16.4613 49.5869 16.7795 49.0042 16.9627C48.4145 17.1482 47.7951 17.1987 47.1461 17.1142C46.4971 17.0249 45.8966 16.7995 45.3447 16.4378C44.7976 16.0785 44.3689 15.5782 44.0586 14.9371L45.5331 13.9894C45.7794 14.4004 46.092 14.7163 46.471 14.9371C46.8547 15.1625 47.2396 15.287 47.6257 15.3105C48.0165 15.341 48.3493 15.2694 48.6241 15.0956C48.8941 14.9289 49.041 14.6553 49.0646 14.2748C49.0599 14.0493 48.9817 13.8732 48.8301 13.7464C48.6809 13.6102 48.495 13.5033 48.2723 13.4258C48.045 13.36 47.8199 13.3037 47.5973 13.2567C47.2657 13.198 46.908 13.1111 46.5243 12.996C46.1524 12.8833 45.7948 12.7224 45.4513 12.5134C45.1103 12.3114 44.8319 12.0378 44.6164 11.6926C44.4293 11.3967 44.3239 11.0279 44.3002 10.5864C44.3002 10.5747 44.3002 10.5629 44.3002 10.5512C44.2931 10.5019 44.2895 10.4514 44.2895 10.3997C44.3014 9.71392 44.4849 9.16553 44.8402 8.75454C45.1884 8.33885 45.6266 8.03471 46.1548 7.84213C46.683 7.65894 47.2207 7.5697 47.7678 7.57439C48.2723 7.57439 48.7887 7.68243 49.3169 7.89849C49.8475 8.11691 50.3461 8.44923 50.8127 8.89545L49.626 10.1848C49.3607 9.92881 49.0445 9.73506 48.6774 9.60354C48.3126 9.46732 47.949 9.39569 47.5866 9.38865C47.2337 9.38865 46.9305 9.45675 46.6771 9.59297C46.4308 9.73153 46.2875 9.94643 46.2472 10.2376C46.2353 10.5054 46.3135 10.7226 46.4817 10.8894C46.6617 11.0561 46.8832 11.1818 47.1461 11.2663C47.4114 11.3556 47.6755 11.4178 47.9384 11.453C48.45 11.5235 48.9403 11.6573 49.4093 11.8546Z" fill="#BA1B02"/>
<path d="M53.5991 4.64291C53.8265 4.87542 53.9437 5.17721 53.9508 5.54828C53.9437 5.89821 53.8265 6.18943 53.5991 6.42194C53.3693 6.65914 53.0661 6.78126 52.6895 6.78831C52.3342 6.78126 52.0429 6.65914 51.8155 6.42194C51.581 6.18943 51.4602 5.89821 51.4531 5.54828C51.4602 5.17721 51.581 4.87542 51.8155 4.64291C52.0429 4.41745 52.3342 4.29885 52.6895 4.28711C53.0685 4.29885 53.3717 4.41745 53.5991 4.64291Z" fill="#BA1B02"/>
<path d="M58.65 15.1867C58.65 15.1585 58.65 4.30469 58.65 4.30469H60.6325V11.4349L61.5634 10.4133L61.5705 10.3956L63.9865 7.70773H66.4629L62.5724 11.9703L66.4451 16.9551H64.1215L61.1832 13.1646L60.6325 13.7212V16.9551L58.7317 17.0256C58.6784 17.0256 58.6749 17.0256 58.6287 17.0256C58.5683 17.0256 58.5008 17.0185 58.5008 17.0185L58.3978 17.008C57.1306 16.9187 56.2364 16.6381 55.7153 16.166C55.0971 15.6071 54.7844 14.8332 54.7773 13.8445V4.30469H56.7599V13.8445C56.7528 14.232 56.8818 14.5514 57.1471 14.8027C57.3639 15.0035 57.9146 15.1374 58.65 15.1867Z" fill="#BA1B02"/>
<path d="M53.7231 16.9547H51.7441V7.68262H53.7231V16.9547Z" fill="#BA1B02"/>
<path d="M40.6697 7.12614H38.7227L40.0053 5.03711H42.4461L40.6697 7.12614Z" fill="#BA1B02"/>
<path fill-rule="evenodd" clip-rule="evenodd" d="M97.1223 10.6284V16.5608C96.5574 16.7687 95.9427 16.9343 95.2819 17.0505C94.6281 17.1656 93.9768 17.2079 93.3278 17.1773C92.6859 17.1538 92.0973 17.0282 91.562 16.8004C91.0267 16.5749 90.6039 16.2238 90.2936 15.7471C89.9691 15.2703 89.8009 14.6421 89.7891 13.8624C89.8056 13.1367 89.9916 12.5507 90.3469 12.1045C90.7022 11.6512 91.1557 11.3259 91.7076 11.1287C92.2595 10.9267 92.8363 10.841 93.4379 10.8715C94.049 10.902 94.6198 11.0265 95.1504 11.2449V10.6848C95.058 10.262 94.8591 9.93442 94.5535 9.70191C94.2527 9.46941 93.8986 9.33437 93.4912 9.29679C93.0814 9.25686 92.6705 9.30266 92.2583 9.43418C91.8557 9.57039 91.5063 9.78764 91.2102 10.0859L90.0591 9.03962C90.5707 8.49241 91.1143 8.10843 91.6899 7.88766C92.2607 7.6669 92.8458 7.56239 93.445 7.57413C94.0703 7.57413 94.6566 7.68099 95.2037 7.89471C95.7627 8.11547 96.2222 8.45601 96.5822 8.91633C96.9304 9.36255 97.1104 9.93325 97.1223 10.6284ZM95.1504 12.9359C94.8922 12.809 94.576 12.7198 94.2018 12.6681C93.837 12.6071 93.4711 12.5977 93.1039 12.6399C92.7321 12.6822 92.4194 12.8008 92.166 12.9957C91.9149 13.186 91.7716 13.4749 91.7361 13.8624C91.7171 14.3274 91.813 14.6855 92.0238 14.9368C92.2394 15.1858 92.5248 15.3525 92.8801 15.4371C93.233 15.5193 93.6108 15.5451 94.0135 15.5146C94.409 15.4793 94.788 15.4112 95.1504 15.3102V12.9359Z" fill="#BA1B02"/>
<path fill-rule="evenodd" clip-rule="evenodd" d="M73.3213 10.745V13.9789C73.3095 14.7 73.1259 15.2965 72.7706 15.7685C72.4224 16.2371 71.9677 16.5929 71.4099 16.8289C70.858 17.0614 70.2788 17.1812 69.6725 17.1882C69.528 17.1882 69.3859 17.1824 69.2461 17.1706C68.7724 17.1213 68.3188 17.0074 67.8854 16.8289C67.6106 16.7115 67.3584 16.5659 67.1286 16.3921C66.9012 16.2136 66.6975 16.0057 66.5175 15.7685C66.1622 15.2965 65.9786 14.7 65.9668 13.9789V10.7485C65.9786 10.0393 66.1622 9.4486 66.5175 8.97655C66.662 8.78631 66.8242 8.61722 67.0042 8.46926C67.2624 8.23675 67.5561 8.04887 67.8854 7.90561C68.3188 7.72712 68.7724 7.61674 69.2461 7.57446C69.3859 7.55802 69.528 7.5498 69.6725 7.5498C70.2788 7.5545 70.858 7.6731 71.4099 7.90561C71.9677 8.14868 72.4224 8.50801 72.7706 8.97655C72.9506 9.2161 73.0856 9.48148 73.1756 9.7727C73.2657 10.071 73.3142 10.3951 73.3213 10.745ZM71.3388 10.7485C71.3317 10.455 71.244 10.2131 71.0759 10.0228C70.9077 9.83259 70.6981 9.69285 70.447 9.60361C70.1936 9.50732 69.9354 9.45917 69.6725 9.45917C69.528 9.45917 69.3859 9.47091 69.2461 9.4944C69.1087 9.52023 68.9773 9.55664 68.8518 9.60361C68.5936 9.69285 68.3769 9.83259 68.2016 10.0228C68.0405 10.2131 67.9564 10.4538 67.9493 10.745V13.9789C67.9564 14.2772 68.0405 14.5273 68.2016 14.7293C68.3769 14.9336 68.5936 15.0922 68.8518 15.2049C68.9773 15.2519 69.1087 15.2906 69.2461 15.3211C69.3859 15.3446 69.528 15.3564 69.6725 15.3564C69.9354 15.3564 70.1936 15.3059 70.447 15.2049C70.6981 15.0922 70.9077 14.9336 71.0759 14.7293C71.244 14.5273 71.3317 14.2772 71.3388 13.9789V10.7485Z" fill="#BA1B02"/>
<path fill-rule="evenodd" clip-rule="evenodd" d="M43.5325 10.6283V16.5607C42.9688 16.7698 42.3565 16.9342 41.6956 17.0539C41.0419 17.1667 40.3905 17.2078 39.7415 17.1772C39.1944 17.1608 38.6863 17.0692 38.2173 16.9025C38.1344 16.8719 38.0539 16.839 37.9757 16.8038C37.6631 16.6723 37.3895 16.4997 37.155 16.286C37.0342 16.1709 36.9229 16.0488 36.821 15.9196C36.6766 15.7153 36.5569 15.4969 36.4622 15.2643V16.9553H27.3703L26.8125 15.5955L33.8863 6.34105H27.1927V4.31543H36.082L36.7216 5.6541L29.6229 14.9614H36.3521C36.2573 14.6349 36.2064 14.2686 36.1993 13.8623C36.2182 13.1366 36.4054 12.5506 36.7606 12.1044C37.1136 11.6511 37.5672 11.3258 38.1214 11.1286C38.1498 11.1168 38.1818 11.1051 38.2173 11.0933C38.7408 10.9148 39.2844 10.8409 39.8481 10.8714C40.4616 10.9019 41.0324 11.0264 41.5606 11.2448V10.6847C41.4706 10.2619 41.2728 9.93432 40.9673 9.70182C40.6665 9.46931 40.3124 9.33544 39.905 9.30022C39.4952 9.25794 39.0831 9.30257 38.6686 9.43408C38.5122 9.48575 38.3618 9.55386 38.2173 9.63841C38.0018 9.75818 37.804 9.90732 37.624 10.0858L36.4729 9.03953C36.9821 8.49232 37.5245 8.10833 38.1001 7.88757C38.138 7.86878 38.1771 7.85351 38.2173 7.84177C38.7526 7.65154 39.2998 7.56229 39.8588 7.57404C40.4841 7.57404 41.0691 7.68207 41.6139 7.89814C42.1729 8.11655 42.6324 8.45591 42.9924 8.91623C43.3406 9.36245 43.5206 9.93315 43.5325 10.6283ZM41.5606 12.9358C41.3024 12.8089 40.9874 12.7197 40.6156 12.668C40.2484 12.607 39.8825 12.5976 39.5177 12.6398C39.1435 12.6821 38.8308 12.8007 38.5797 12.9957C38.4116 13.1225 38.2908 13.2963 38.2173 13.517C38.1818 13.618 38.1581 13.7331 38.1463 13.8623C38.1344 14.1136 38.1581 14.3378 38.2173 14.5351C38.2671 14.6878 38.3393 14.8216 38.4341 14.9367C38.652 15.1857 38.9374 15.3524 39.2903 15.437C39.6456 15.5192 40.0246 15.545 40.4272 15.5145C40.8228 15.4792 41.2006 15.4111 41.5606 15.3101V12.9358Z" fill="#BA1B02"/>
</svg>
