<svg width="300" height="300" viewBox="0 0 300 300" fill="none" xmlns="http://www.w3.org/2000/svg">
<rect width="300" height="300" rx="150" fill="#F7F7F9"/>
<path d="M130.272 59C131.678 65.9017 129.945 72.6175 124.977 78.9865C119.274 86.2976 109.088 92.9771 94.4702 97.4202C81.9381 101.229 73.4649 107.937 68.9312 115.764C64.3967 123.59 63.8881 132.46 66.8737 140.071C72.2059 153.663 88.5999 162.73 110.499 157.155C115.133 155.695 120.38 153.554 124.516 150.965C125.419 150.4 126.253 149.82 127.012 149.232C125.974 148.259 125.059 147.124 124.314 145.833C124.069 145.408 123.848 144.974 123.651 144.539C118.958 147.437 112.952 150.384 105.115 151.517C87.8725 154.744 76.8789 147.192 73.1232 137.618C70.8725 131.882 71.1901 125.271 74.7419 119.14C78.2936 113.009 85.174 107.278 96.4249 103.857C111.994 99.1254 123.419 91.9122 130.271 83.1282C135.944 75.856 138.329 67.3904 137.072 59.0004L130.272 59ZM136.69 113.547C136.407 113.547 136.119 113.547 135.836 113.558C131.712 113.707 127.552 114.848 123.729 117.058C114.225 122.551 109.663 132.962 111.409 143.077C115.801 141.53 119.358 139.377 122.527 137.258C123.037 133.269 125.379 129.599 129.26 127.355C131.54 126.037 134.039 125.387 136.499 125.374C141.195 125.349 145.732 127.645 148.245 132.003C152.076 138.643 149.708 147.478 143.075 151.314C139.994 153.094 136.559 153.471 133.373 152.698C131.781 154.167 129.968 155.488 128.079 156.67C126.177 157.861 124.151 158.935 122.088 159.9C127.544 163.746 134.307 165.363 140.882 164.267H140.893L166.927 209.428C173.139 220.198 182.225 226.788 191.669 229.042C201.111 231.296 210.64 229.46 218.377 224.71C233.851 215.21 242.247 193.194 230.438 172.718L224.492 162.398L224.435 162.298C217.38 149.322 208.232 140.509 197.334 135.187C201.93 151.722 203.593 168.257 203.123 184.793L213.442 172.549L215.207 171.469L218.984 178.008C226.881 191.701 220.276 204.194 211.385 209.653C198.542 215.608 188.88 213.981 180.945 201.325L155.126 156.535C162.579 148.46 164.37 135.99 158.643 126.06C153.967 117.952 145.465 113.517 136.69 113.547Z" fill="#242424"/>
</svg>
