<svg width="66" height="66" viewBox="0 0 66 66" fill="none" xmlns="http://www.w3.org/2000/svg">
<rect width="66" height="66" fill="white"/>
<path d="M27.0846 43.5836C27.7035 42.9648 28.0512 42.1254 28.0512 41.2502C28.0512 40.375 27.7035 39.5356 27.0846 38.9167C26.4658 38.2979 25.6264 37.9502 24.7512 37.9502C23.876 37.9502 23.0366 38.2979 22.4177 38.9167C21.7988 39.5356 21.4512 40.375 21.4512 41.2502C21.4512 42.1254 21.7988 42.9648 22.4177 43.5836C23.0366 44.2025 23.876 44.5502 24.7512 44.5502C25.6264 44.5502 26.4658 44.2025 27.0846 43.5836Z" stroke="#666666"/>
<path d="M43.5846 43.5836C44.2035 42.9648 44.5512 42.1254 44.5512 41.2502C44.5512 40.375 44.2035 39.5356 43.5846 38.9167C42.9658 38.2979 42.1264 37.9502 41.2512 37.9502C40.376 37.9502 39.5366 38.2979 38.9177 38.9167C38.2988 39.5356 37.9512 40.375 37.9512 41.2502C37.9512 42.1254 38.2988 42.9648 38.9177 43.5836C39.5366 44.2025 40.376 44.5502 41.2512 44.5502C42.1264 44.5502 42.9658 44.2025 43.5846 43.5836Z" stroke="#666666"/>
<path d="M34.6504 39.6002V23.1002C34.6504 22.6626 34.4766 22.2429 34.1671 21.9335C33.8577 21.624 33.438 21.4502 33.0004 21.4502H19.8004C19.3628 21.4502 18.9431 21.624 18.6337 21.9335C18.3242 22.2429 18.1504 22.6626 18.1504 23.1002V39.6002C18.1504 40.0378 18.3242 40.4575 18.6337 40.7669C18.9431 41.0764 19.3628 41.2502 19.8004 41.2502H21.4504M34.6504 39.6002C34.6504 40.0378 34.4766 40.4575 34.1671 40.7669C33.8577 41.0764 33.438 41.2502 33.0004 41.2502H28.0504M34.6504 39.6002V26.4002C34.6504 25.9626 34.8242 25.5429 35.1337 25.2335C35.4431 24.924 35.8628 24.7502 36.3004 24.7502H40.5673C41.0049 24.7503 41.4245 24.9242 41.7338 25.2336L47.3669 30.8667C47.6764 31.1761 47.8503 31.5957 47.8504 32.0333V39.6002C47.8504 40.0378 47.6766 40.4575 47.3671 40.7669C47.0577 41.0764 46.638 41.2502 46.2004 41.2502H44.5504M34.6504 39.6002C34.6504 40.0378 34.8242 40.4575 35.1337 40.7669C35.4431 41.0764 35.8628 41.2502 36.3004 41.2502H37.9504M21.4504 41.2502C21.4504 42.1254 21.7981 42.9648 22.4169 43.5836C23.0358 44.2025 23.8752 44.5502 24.7504 44.5502C25.6256 44.5502 26.465 44.2025 27.0838 43.5836C27.7027 42.9648 28.0504 42.1254 28.0504 41.2502M21.4504 41.2502C21.4504 40.375 21.7981 39.5356 22.4169 38.9167C23.0358 38.2979 23.8752 37.9502 24.7504 37.9502C25.6256 37.9502 26.465 38.2979 27.0838 38.9167C27.7027 39.5356 28.0504 40.375 28.0504 41.2502M44.5504 41.2502C44.5504 42.1254 44.2027 42.9648 43.5838 43.5836C42.965 44.2025 42.1256 44.5502 41.2504 44.5502C40.3752 44.5502 39.5358 44.2025 38.9169 43.5836C38.2981 42.9648 37.9504 42.1254 37.9504 41.2502M44.5504 41.2502C44.5504 40.375 44.2027 39.5356 43.5838 38.9167C42.965 38.2979 42.1256 37.9502 41.2504 37.9502C40.3752 37.9502 39.5358 38.2979 38.9169 38.9167C38.2981 39.5356 37.9504 40.375 37.9504 41.2502" stroke="#488F2B" stroke-width="2" stroke-linecap="round" stroke-linejoin="round"/>
</svg>
