<svg width="66" height="66" viewBox="0 0 66 66" fill="none" xmlns="http://www.w3.org/2000/svg">
<rect width="66" height="66" fill="white"/>
<path d="M21.4492 21.4529V28.6708H22.2895M22.2895 28.6708C23.2479 26.3006 24.9657 24.3154 27.1737 23.0262C29.3817 21.737 31.9551 21.2168 34.4906 21.5469C37.026 21.8771 39.3803 23.0391 41.1844 24.8508C42.9885 26.6624 44.1404 29.0214 44.4597 31.558M22.2895 28.6708H28.668M44.5492 44.5502V37.3323H43.7104M43.7104 37.3323C42.7506 39.7011 41.0323 41.6848 38.8245 42.9728C36.6167 44.2608 34.0441 44.7805 31.5094 44.4504C28.9747 44.1203 26.621 42.9592 24.8168 41.1487C23.0126 39.3383 21.8598 36.9807 21.5387 34.4451M43.7104 37.3323H37.3305" stroke="#488F2B" stroke-width="2" stroke-linecap="round" stroke-linejoin="round"/>
</svg>
