<svg width="66" height="66" viewBox="0 0 66 66" fill="none" xmlns="http://www.w3.org/2000/svg">
<rect width="66" height="66" fill="#488F2B"/>
<path d="M21.4492 33.0002L24.0159 30.4335M24.0159 30.4335L32.9992 21.4502L41.9826 30.4335M24.0159 30.4335V43.2669C24.0159 43.6072 24.1511 43.9336 24.3918 44.1743C24.6324 44.415 24.9589 44.5502 25.2992 44.5502H29.1492M41.9826 30.4335L44.5492 33.0002M41.9826 30.4335V43.2669C41.9826 43.6072 41.8473 43.9336 41.6067 44.1743C41.366 44.415 41.0396 44.5502 40.6992 44.5502H36.8492M29.1492 44.5502C29.4896 44.5502 29.816 44.415 30.0567 44.1743C30.2973 43.9336 30.4326 43.6072 30.4326 43.2669V38.1335C30.4326 37.7932 30.5678 37.4667 30.8084 37.2261C31.0491 36.9854 31.3755 36.8502 31.7159 36.8502H34.2826C34.6229 36.8502 34.9493 36.9854 35.19 37.2261C35.4307 37.4667 35.5659 37.7932 35.5659 38.1335V43.2669C35.5659 43.6072 35.7011 43.9336 35.9418 44.1743C36.1824 44.415 36.5089 44.5502 36.8492 44.5502M29.1492 44.5502H36.8492" stroke="white" stroke-width="2" stroke-linecap="round" stroke-linejoin="round"/>
</svg>
