<svg width="43" height="27" viewBox="0 0 43 27" fill="none" xmlns="http://www.w3.org/2000/svg">
<path d="M21.8893 23.2222C24.5992 23.2222 26.7961 18.668 26.7961 13.0501C26.7961 7.43216 24.5992 2.87793 21.8893 2.87793C19.1793 2.87793 16.9824 7.43216 16.9824 13.0501C16.9824 18.668 19.1793 23.2222 21.8893 23.2222Z" fill="#F26A21"/>
<path d="M29.9499 0.0722656C27.0146 0.0722656 24.2107 1.08071 21.8887 2.87838C27.5403 7.30678 28.4603 15.5059 24.0354 21.1181C23.4221 21.9073 22.6773 22.6089 21.8887 23.2666C27.4965 27.695 35.6891 26.7742 40.114 21.1181C44.539 15.4621 43.6189 7.30678 37.9673 2.87838C35.7329 1.08071 32.8852 0.0722656 29.9499 0.0722656Z" fill="#F99F1D"/>
<path d="M16.9816 13.0503C16.9816 9.06035 18.7779 5.33348 21.8885 2.87813C16.2807 -1.59411 8.08802 -0.629504 3.66311 4.98272C-0.761805 10.595 0.158226 18.7941 5.76603 23.2225C10.4976 26.9493 17.1569 26.9493 21.8885 23.2225C18.7779 20.7671 16.9816 17.0403 16.9816 13.0503Z" fill="#ED2026"/>
</svg>
