<svg width="57" height="19" viewBox="0 0 57 19" fill="none" xmlns="http://www.w3.org/2000/svg">
<path fill-rule="evenodd" clip-rule="evenodd" d="M41.3538 1.22832C39.9905 0.760148 38.6271 0.5 37.2133 0.5C32.669 0.5 29.4374 2.84103 29.4374 6.22258C29.4374 8.71967 31.7096 10.1243 33.4769 10.9567C35.2441 11.789 35.8501 12.3613 35.8501 13.1417C35.8501 14.2861 34.4363 14.8584 33.1234 14.8584C31.6086 14.9104 30.1443 14.5983 28.781 13.922L28.1751 13.6619L27.5187 17.5636C29.1345 18.1879 30.9017 18.5 32.6185 18.5C37.4658 18.5 40.5964 16.159 40.6469 12.5694C40.6469 10.5925 39.435 9.08383 36.7589 7.83529C35.1432 7.05492 34.1838 6.48265 34.1838 5.65031C34.2342 4.92199 35.0422 4.14162 36.8599 4.14162C38.0212 4.08958 39.2331 4.34972 40.2934 4.8179L40.6974 5.026L41.3538 1.22832ZM20.0457 18.188L22.9239 0.812193H27.5187L24.6406 18.188H20.0457ZM49.6347 0.812193H53.1693L56.9057 18.24H52.6139C52.6139 18.24 52.2099 16.2631 52.0585 15.6388H46.1508C45.9993 16.107 45.1914 18.24 45.1914 18.24H40.344L47.2111 2.26884C47.7161 1.12439 48.5239 0.812193 49.6347 0.812193ZM47.4635 12.0492C47.8675 11.0608 49.2813 7.15901 49.2813 7.15901C49.2813 7.15901 49.6347 6.17061 49.8871 5.49425L50.1901 7.00295C50.1901 7.00295 51.099 11.1648 51.2505 12.0492H47.4635ZM11.6639 12.6735L16.1578 0.812193H21.0556L13.8351 18.188H8.9373L4.79688 2.99717C7.72545 4.50586 10.3006 7.52317 11.159 10.2804L11.6639 12.6735Z" fill="#1334CB"/>
<path d="M7.47298 0.811523H0.050493L0 1.17569C5.75621 2.63233 9.59371 6.1179 11.1589 10.2797L9.59371 2.26817C9.29071 1.17569 8.48283 0.863568 7.47298 0.811523Z" fill="#1334CB"/>
</svg>
