<svg width="521" height="241" viewBox="0 0 521 241" fill="none" xmlns="http://www.w3.org/2000/svg"><mask id="mask0" mask-type="alpha" maskUnits="userSpaceOnUse" x="0" y="0" width="521" height="241"><path d="M0 0h521v241H0z" fill="#50ac58"/></mask><g mask="url(#mask0)"><path d="M564.076-78.0897C608.909-159.173 554.016-256.556 462.597-265.753L429.237-269.112C404.907-271.562 383.174-282.212 365.117-302.69 302.272-373.951 185.249-356.354 146.726-270.74 137.344-249.89 120.378-233.21 98.9546-223.773L51.9572-203.073C-22.9578-170.077-48.3572-78.523-1.03711-13.0465L28.7828 28.2134C35.2594 37.1761 39.9871 47.0832 42.8361 57.6587L57.6444 112.659C77.9297 188.003 162.521 228.716 236.357 197.049L242.679 194.338C261.468 186.279 282.845 184.326 302.862 188.828L399.814 210.637C494.266 231.883 577.521 149.07 556.429 58.0443L544.158 5.09979C539.192-16.3318 542.358-38.8066 553.073-58.1837L564.076-78.0897z" fill="#50ac58" fill-opacity=".2"/></g></svg>