<svg width="42" height="42" viewBox="0 0 42 42" fill="none" xmlns="http://www.w3.org/2000/svg">
<rect width="42" height="42" rx="21" fill="white"/>
<path d="M27.979 25.431C27.979 25.683 27.923 25.942 27.804 26.194C27.685 26.446 27.531 26.684 27.328 26.908C26.985 27.286 26.607 27.559 26.18 27.734C25.76 27.909 25.305 28 24.815 28C24.101 28 23.338 27.832 22.533 27.489C21.728 27.146 20.923 26.684 20.125 26.103C19.32 25.515 18.557 24.864 17.829 24.143C17.108 23.415 16.457 22.652 15.876 21.854C15.302 21.056 14.84 20.258 14.504 19.467C14.168 18.669 14 17.906 14 17.178C14 16.702 14.084 16.247 14.252 15.827C14.42 15.4 14.686 15.008 15.057 14.658C15.505 14.217 15.995 14 16.513 14C16.709 14 16.905 14.042 17.08 14.126C17.262 14.21 17.423 14.336 17.549 14.518L19.173 16.807C19.299 16.982 19.39 17.143 19.453 17.297C19.516 17.444 19.551 17.591 19.551 17.724C19.551 17.892 19.502 18.06 19.404 18.221C19.313 18.382 19.18 18.55 19.012 18.718L18.48 19.271C18.403 19.348 18.368 19.439 18.368 19.551C18.368 19.607 18.375 19.656 18.389 19.712C18.41 19.768 18.431 19.81 18.445 19.852C18.571 20.083 18.788 20.384 19.096 20.748C19.411 21.112 19.747 21.483 20.111 21.854C20.489 22.225 20.853 22.568 21.224 22.883C21.588 23.191 21.889 23.401 22.127 23.527C22.162 23.541 22.204 23.562 22.253 23.583C22.309 23.604 22.365 23.611 22.428 23.611C22.547 23.611 22.638 23.569 22.715 23.492L23.247 22.967C23.422 22.792 23.59 22.659 23.751 22.575C23.912 22.477 24.073 22.428 24.248 22.428C24.381 22.428 24.521 22.456 24.675 22.519C24.829 22.582 24.99 22.673 25.165 22.792L27.482 24.437C27.664 24.563 27.79 24.71 27.867 24.885C27.937 25.06 27.979 25.235 27.979 25.431Z" stroke="#242424" stroke-width="1.5" stroke-miterlimit="10"/>
</svg>
