<svg width="42" height="42" viewBox="0 0 42 42" fill="none" xmlns="http://www.w3.org/2000/svg">
<rect width="42" height="42" rx="21" fill="white"/>
<path d="M27.9 15.625V15.125H27.4H14.6H14.1V15.625V16.041V16.2832L14.2901 16.4334L20.6901 21.4887L21 21.7336L21.31 21.4887L27.71 16.4325L27.9 16.2824V16.0402V15.625ZM14.1 25.375V25.875H14.6H27.4016H27.9017L27.9016 25.3749L27.9 18.0981L27.8998 17.0662L27.0901 17.7059L21.1813 22.3737L21.1799 22.3748C21.1273 22.4167 21.0642 22.4375 21 22.4375C20.9358 22.4375 20.8727 22.4167 20.8201 22.3748L20.8187 22.3737L14.9099 17.7059L14.1 17.0661V18.0982V25.375ZM14.6 14.5H27.4C27.999 14.5 28.5 14.9976 28.5 15.625V25.375C28.5 26.0024 27.999 26.5 27.4 26.5H14.6C14.001 26.5 13.5 26.0024 13.5 25.375V15.625C13.5 14.9976 14.001 14.5 14.6 14.5Z" fill="white" stroke="#242424"/>
</svg>
