<svg width="214" height="29" viewBox="0 0 214 29" fill="none" xmlns="http://www.w3.org/2000/svg">
<path d="M69.3803 2.09863C70.6002 2.09863 71.7145 2.35669 72.7232 2.87279C73.7555 3.36544 74.5648 4.06922 75.1513 4.98414C75.7612 5.89906 76.0662 6.91954 76.0662 8.04559C76.0662 11.0249 74.7173 12.9017 72.0195 13.6759V13.8166C75.0926 14.5204 76.6292 16.5379 76.6292 19.8691C76.6292 21.1359 76.3125 22.262 75.6791 23.2473C75.0692 24.2091 74.2246 24.9598 73.1455 25.4994C72.0664 26.039 70.8817 26.3087 69.5914 26.3087H53.2637V2.09863H69.3803ZM61.0405 11.5293H66.3892C66.9053 11.5293 67.3276 11.3534 67.656 11.0015C68.0079 10.6261 68.1839 10.1687 68.1839 9.6291V9.27721C68.1839 8.7611 68.0079 8.32711 67.656 7.97521C67.3041 7.59986 66.8819 7.41219 66.3892 7.41219H61.0405V11.5293ZM61.0405 20.6785H66.9522C67.4683 20.6785 67.8906 20.5025 68.219 20.1506C68.5709 19.7753 68.7469 19.3178 68.7469 18.7783V18.4264C68.7469 17.8868 68.5709 17.4411 68.219 17.0892C67.8906 16.7138 67.4683 16.5262 66.9522 16.5262H61.0405V20.6785Z" fill="#704F32"/>
<path d="M40.903 26.3087H33.1262V16.9132L23.5195 2.09863H32.4576L37.1025 10.1569H37.2433L41.8883 2.09863H50.3688L40.903 16.9132V26.3087Z" fill="#704F32"/>
<path d="M22.9785 9.52354C22.9785 11.0015 22.5797 12.3387 21.7821 13.5351C20.9844 14.7315 19.8232 15.6113 18.2983 16.1743L23.6823 26.3087H14.9554L10.6623 17.4763H7.77679V26.3087H0V2.09863H14.8146C16.5506 2.09863 18.0286 2.43879 19.2484 3.11912C20.4918 3.77598 21.4184 4.67917 22.0284 5.82868C22.6618 6.95473 22.9785 8.18635 22.9785 9.52354ZM15.0609 9.84024C15.0609 9.20683 14.8498 8.679 14.4275 8.25673C14.0053 7.83446 13.4892 7.62332 12.8792 7.62332H7.77679V12.0923H12.8792C13.4892 12.0923 14.0053 11.8812 14.4275 11.4589C14.8498 11.0132 15.0609 10.4736 15.0609 9.84024Z" fill="#704F32"/>
<path d="M205 26.0148L203.979 22.6015H195.499L194.478 26.0148H186.525L195.358 1.80469H204.401L213.234 26.0148H205ZM197.117 17.1823H202.36L199.827 8.561H199.686L197.117 17.1823Z" fill="#704F32"/>
<path d="M175.863 1.80469H185.505L176.813 11.7632L185.681 26.0148H176.496L171.464 17.1471L167.242 20.5957V26.0148H159.465V1.80469H167.242V12.1503L175.863 1.80469Z" fill="#704F32"/>
<path d="M134.07 1.80469H155.008V7.61089H141.847V10.9539H153.108V16.5137H141.847V20.2086H155.254V26.0148H134.07V1.80469Z" fill="#704F32"/>
<path d="M122.61 7.99797V26.0148H114.834V7.99797H106.881V1.80469H130.528V7.99797H122.61Z" fill="#704F32"/>
<rect x="141.842" y="9.59375" width="13.4892" height="9.38376" fill="white"/>
<path d="M141.78 8.92054L157.736 13.3194L141.78 18.1829L141.78 8.92054Z" fill="white"/>
<path d="M92.502 0L141.257 13.9926L92.502 28.5L92.502 0Z" fill="#9ACF84"/>
<path d="M92.498 -0.00292969L107.001 14.5L92.5 28.5L77.9951 14.5L92.498 -0.00292969Z" fill="#488F2B"/>
<rect x="88.5957" y="7.54102" width="4.32284" height="4.32284" transform="rotate(45 88.5957 7.54102)" fill="white"/>
<path d="M154.867 18.39L138.91 13.9912L154.867 9.1276L154.867 18.39Z" fill="#9ACF84"/>
</svg>
